<svg version="1.1" id="Layer_1" xmlns="http://www.w3.org/2000/svg" xmlns:xlink="http://www.w3.org/1999/xlink" x="0px" y="0px"
	 width="100%" viewBox="0 0 725 725" enable-background="new 0 0 725 725" xml:space="preserve">
<path fill="#EE8A1D" opacity="1.000000" stroke="none" 
	d="
M0.999994,652.000000 
	C1.000000,435.069977 1.000000,218.139969 1.000000,1.000000 
	C217.360138,1.000000 433.720367,1.000000 650.785339,1.308408 
	C686.595337,6.162726 714.685242,30.905439 723.456360,65.045029 
	C724.388977,68.674911 725.156067,72.347328 726.000000,76.000000 
	C726.000000,267.693512 726.000000,459.387054 725.691101,651.774292 
	C718.798523,689.137146 697.789856,712.934509 661.953247,723.439087 
	C658.360596,724.492188 654.653809,725.155701 651.000000,726.000000 
	C459.306458,726.000000 267.612946,726.000000 75.223145,725.691101 
	C37.841537,718.805725 14.063193,697.776184 3.542510,661.937866 
	C2.579978,658.658997 1.842156,655.314209 0.999994,652.000000 
M204.896957,539.303345 
	C197.561310,530.125183 188.909454,527.070862 178.774078,530.081238 
	C171.127380,532.352478 166.060928,538.313599 165.787949,545.360718 
	C165.525421,552.137695 168.998199,556.432739 177.344482,559.699829 
	C181.361725,561.272339 185.462402,562.684753 189.313644,564.596130 
	C190.483536,565.176758 191.831436,567.456665 191.518219,568.469910 
	C191.083176,569.877075 189.134018,571.787415 187.877411,571.755066 
	C185.665726,571.698242 183.445175,570.429016 181.313126,569.477478 
	C180.222641,568.990784 179.346268,567.533447 178.320786,567.477722 
	C174.053757,567.245850 169.766846,567.380127 165.347153,567.380127 
	C165.347153,568.538330 165.226395,569.203125 165.364899,569.808594 
	C168.405334,583.100281 185.516388,589.223572 198.661209,581.686523 
	C204.871750,578.125427 207.786972,572.731750 207.325577,565.525208 
	C206.890137,558.724243 202.579453,555.200745 196.770004,553.023254 
	C193.042603,551.626282 189.116241,550.716064 185.491974,549.107849 
	C183.879898,548.392517 182.575134,546.625793 181.615982,545.042358 
	C181.366531,544.630554 182.974091,542.241638 183.670227,542.268616 
	C185.781616,542.350525 188.169067,542.703613 189.882309,543.820435 
	C192.096161,545.263550 203.442993,546.663025 205.352539,544.934631 
	C205.845337,544.488647 205.729874,543.370667 206.790482,542.789124 
	C208.735107,542.884583 210.679733,542.980042 213.134918,543.100525 
	C213.134918,556.474487 213.134918,569.544312 213.134918,582.709106 
	C218.572800,582.709106 223.474991,582.709106 228.932083,582.709106 
	C228.932083,569.349487 228.932083,556.281433 228.932083,543.159363 
	C231.571884,542.914612 233.663574,542.720642 235.827759,542.520020 
	C235.827759,538.519836 235.827759,534.818542 235.827759,531.158264 
	C233.317993,530.948853 231.227402,530.774414 228.661560,530.560303 
	C228.661560,524.774231 228.661560,519.363525 228.661560,513.811951 
	C223.225998,513.811951 218.309052,513.811951 212.950104,513.811951 
	C212.950104,519.586914 212.950104,525.025024 212.950104,530.638794 
	C210.285614,530.858032 208.046097,531.042297 205.322083,531.266418 
	C205.453354,534.176941 205.571396,536.793945 204.896957,539.303345 
M587.714844,542.161560 
	C587.714844,538.545837 587.714844,534.930115 587.714844,531.235229 
	C584.881592,530.974854 582.641357,530.768982 579.966187,530.523132 
	C579.966187,524.771606 579.966187,519.358093 579.966187,513.875488 
	C574.601990,513.875488 569.726196,513.875488 564.274902,513.875488 
	C564.274902,519.684509 564.274902,525.088196 564.274902,530.628601 
	C561.489075,530.855164 559.267822,531.035767 557.226501,531.201782 
	C557.226501,535.308533 557.226501,538.886536 557.226501,542.661255 
	C559.668457,542.806946 561.764343,542.932007 564.425293,543.090759 
	C564.425293,556.436096 564.425293,569.498840 564.425293,582.717163 
	C569.908936,582.717163 574.798950,582.717163 580.196411,582.717163 
	C580.196411,569.362610 580.196411,556.298584 580.196411,542.944336 
	C583.167847,542.944336 585.632568,542.944336 588.562744,543.641785 
	C584.812317,551.915833 584.050903,560.269348 587.967896,568.716431 
	C592.690674,578.900940 603.830994,585.558044 614.599854,584.670105 
	C625.308167,583.787170 634.819092,576.508240 637.706177,566.576233 
	C631.050598,567.368530 624.596436,564.936218 618.221130,569.880188 
	C612.106384,574.622131 603.182373,570.022522 601.258423,561.736328 
	C614.095825,561.736328 626.814575,561.736328 639.409363,561.736328 
	C641.801880,549.053955 635.458984,536.722412 624.305908,531.593384 
	C612.723206,526.266846 599.304382,529.494995 591.479370,539.431580 
	C590.447144,540.742310 589.158447,541.851013 587.714844,542.161560 
M324.397552,546.408081 
	C323.918640,551.326355 322.714600,556.304382 323.113312,561.150391 
	C323.917297,570.921875 328.804535,578.593689 338.012665,582.512268 
	C346.997253,586.335632 355.822632,586.002991 363.670441,578.743958 
	C364.014618,580.336487 364.296875,581.642578 364.499695,582.581055 
	C369.912659,582.581055 374.802399,582.581055 379.625885,582.581055 
	C379.625885,565.254700 379.625885,548.355713 379.625885,530.699707 
	C374.034424,532.636169 367.452209,527.481445 362.961151,534.382202 
	C350.127167,524.847046 333.134583,528.728455 325.120789,542.973999 
	C324.738922,538.437744 324.357025,533.901489 323.861115,528.010193 
	C319.264832,530.173767 315.277802,532.050537 312.133026,533.530823 
	C307.725708,528.291931 301.901093,532.230957 296.891296,530.679993 
	C296.891296,548.447021 296.891296,565.601501 296.891296,582.755005 
	C302.084229,582.755005 306.846832,582.755005 312.093811,582.755005 
	C312.093811,573.400391 312.002899,564.296936 312.121124,555.196106 
	C312.225189,547.183472 316.904144,543.798218 324.397552,546.408081 
M110.182976,547.879944 
	C110.077133,548.536804 110.002144,549.200439 109.860954,549.849609 
	C105.041840,572.006775 123.310295,589.462158 145.123032,583.537720 
	C157.066254,580.293762 165.043976,569.572327 165.027069,556.788086 
	C165.010284,544.097229 156.711899,533.069397 144.970963,530.135254 
	C131.583374,526.789612 118.881401,531.783447 112.625893,542.814331 
	C111.764481,544.333313 110.737442,545.758423 109.534744,546.366333 
	C109.917953,544.748718 110.373627,543.144348 110.672729,541.511353 
	C112.752571,530.156006 107.000443,518.348633 97.155785,515.480713 
	C84.703873,511.853271 71.873932,513.966980 59.237709,513.434509 
	C59.237709,537.094788 59.237709,559.931152 59.237709,582.721191 
	C64.908310,582.721191 70.161049,582.721191 76.075729,582.721191 
	C76.075729,575.427795 76.075729,568.398560 76.075729,561.557007 
	C77.060768,561.324158 77.374863,561.197937 77.693810,561.184143 
	C78.690025,561.141235 79.693748,561.063232 80.684540,561.135742 
	C93.116432,562.046204 103.640167,559.008362 110.182976,547.879944 
M127.660744,654.356140 
	C131.781250,672.521240 140.931488,680.575623 157.032471,680.210266 
	C171.673340,679.878052 182.930939,669.473145 183.987427,655.297058 
	C185.125870,640.021362 175.560196,627.612610 160.830582,625.257507 
	C145.679657,622.835022 132.477646,631.315430 128.879089,645.783203 
	C128.250671,648.309814 127.627525,650.837769 126.155861,652.930847 
	C121.997993,652.875061 117.828270,652.992004 113.686096,652.707642 
	C110.511604,652.489685 108.536552,653.475098 106.829430,656.301331 
	C104.037651,660.923279 99.800308,663.734436 94.222572,664.206970 
	C84.679482,665.015381 77.075920,659.391602 74.476173,649.546875 
	C71.846535,639.589050 76.555618,628.777039 85.132530,625.079773 
	C93.682968,621.393921 102.036484,624.415588 107.838310,633.140137 
	C108.566597,634.235229 109.906822,635.591187 111.022499,635.646912 
	C116.296432,635.910767 121.590874,635.764709 127.579399,635.764709 
	C126.857704,633.258179 126.512619,631.326233 125.762444,629.567078 
	C117.979607,611.317383 96.252899,602.940063 77.535210,610.915466 
	C59.672447,618.526550 51.217682,639.522217 58.704327,657.678284 
	C64.904289,672.713989 79.640732,681.423523 96.331787,679.916992 
	C111.106895,678.583374 123.930893,667.729858 127.660744,654.356140 
M230.187546,96.339111 
	C219.769119,81.941399 205.897507,72.678078 188.457642,69.338120 
	C179.657181,67.652718 170.656616,66.292328 161.724274,66.146164 
	C131.070114,65.644600 100.406136,65.741486 69.745827,65.628098 
	C68.626472,65.623955 67.506432,65.806808 66.196091,65.918808 
	C66.196091,145.580780 66.196091,224.961090 66.196091,304.527863 
	C85.578133,304.527863 104.644768,304.527863 124.406479,304.527863 
	C124.406479,279.531403 124.406479,254.834335 124.406479,229.653885 
	C136.751129,229.653885 148.435318,230.197830 160.045074,229.501266 
	C171.713150,228.801208 183.307129,226.866104 195.193283,225.441086 
	C195.356583,226.361649 195.521408,227.842316 195.888535,229.271011 
	C198.280914,238.581192 199.652893,248.325027 203.323547,257.105591 
	C219.129730,294.915741 260.421356,316.891937 299.773712,309.050873 
	C314.405884,306.135345 326.120728,298.581207 334.994629,284.998810 
	C334.994629,289.810516 335.147003,293.406128 334.970459,296.985504 
	C333.586639,325.042114 313.914551,341.944427 285.963806,338.884796 
	C276.124786,337.807770 267.594360,333.827209 262.310181,324.973083 
	C260.709778,322.291504 259.025574,321.405396 256.015076,321.427643 
	C238.518616,321.556885 221.020691,321.481781 203.523315,321.506836 
	C201.946381,321.509094 200.369781,321.732086 198.424957,321.880676 
	C198.857849,324.241089 199.062485,326.042755 199.525269,327.775482 
	C204.747116,347.326599 216.560837,361.816132 233.922119,371.830719 
	C249.458237,380.792480 266.518951,384.094849 284.241791,384.438080 
	C311.233734,384.960785 336.469696,379.198975 358.763641,363.195190 
	C373.609985,352.537689 383.430359,338.519196 386.564850,320.349823 
	C387.834778,312.988525 388.856659,305.476166 388.891785,298.027344 
	C389.157562,241.704147 389.152191,185.379669 389.211517,129.055573 
	C389.212677,127.941048 388.972229,126.826263 388.839691,125.669739 
	C371.045502,125.669739 353.526428,125.669739 335.611816,125.669739 
	C335.611816,128.591370 335.611816,131.073181 335.611816,133.555008 
	C335.611816,135.984268 335.611816,138.413544 335.611816,141.168961 
	C307.991730,112.554306 276.784882,116.394722 244.177109,128.713654 
	C241.784622,117.286507 237.501144,106.536049 230.187546,96.339111 
M504.896698,108.783569 
	C506.335175,110.542847 507.733490,113.790268 509.218384,113.830376 
	C523.500671,114.216133 537.797546,114.061417 552.085632,114.061417 
	C552.057861,81.010635 517.172791,50.518864 479.486298,50.119778 
	C437.461639,49.674755 403.749359,81.828217 403.048187,123.023521 
	C402.329376,165.251724 434.481903,198.717453 477.398956,199.552170 
	C522.772278,200.434692 549.273987,166.009384 552.533020,136.366257 
	C540.186340,136.366257 527.875549,136.693100 515.595215,136.223999 
	C509.735168,136.000122 506.520386,137.577484 503.733154,143.081161 
	C498.260651,153.887131 489.003357,159.733139 476.519745,158.907623 
	C464.136688,158.088730 455.454712,151.333176 451.251129,140.001846 
	C449.005951,133.949524 448.006805,127.010010 448.260376,120.542053 
	C448.829224,106.033005 459.058899,94.231857 472.128510,91.398056 
	C485.528748,88.492561 497.176636,94.490982 504.896698,108.783569 
M626.290894,636.973267 
	C628.882385,647.444946 631.432861,657.926941 634.076233,668.385498 
	C637.143677,680.521973 634.257935,678.614258 647.546814,678.940857 
	C651.013489,679.026123 652.506714,677.790527 653.373718,674.406372 
	C658.496582,654.409119 663.857361,634.472839 669.106262,614.507690 
	C669.500732,613.007141 669.647705,611.441467 670.036743,609.162170 
	C665.108826,609.162170 660.974609,609.312500 656.857117,609.115051 
	C653.504272,608.954285 652.183411,610.437134 651.579346,613.605225 
	C649.833801,622.760437 647.842346,631.869141 645.902710,640.986633 
	C645.172302,644.419983 644.318909,647.827209 643.521545,651.246338 
	C641.952759,649.435303 641.449219,647.723511 641.060547,645.986023 
	C638.698364,635.427002 635.975403,624.927856 634.167114,614.273926 
	C633.131836,608.174072 629.218750,609.336914 625.342468,609.114685 
	C621.455139,608.891785 618.851746,609.450623 617.953308,614.184875 
	C615.874939,625.136292 613.205383,635.976013 610.734009,646.851562 
	C610.397949,648.330261 609.823364,649.754822 609.359253,651.204407 
	C607.965332,649.159485 607.437439,647.278015 607.044739,645.368774 
	C604.898804,634.933716 602.867371,624.473999 600.581177,614.070129 
	C600.204285,612.355164 598.883301,609.609253 597.787964,609.502625 
	C592.742920,609.011230 587.623291,609.286011 581.885925,609.286011 
	C582.350464,611.697876 582.572327,613.292603 582.969299,614.842529 
	C587.635925,633.067017 592.183716,651.323792 597.069031,669.489746 
	C599.999451,680.386414 597.271973,678.472351 609.481384,679.002014 
	C614.365906,679.213867 616.092957,677.428284 617.070984,672.876099 
	C619.652649,660.859680 622.749573,648.953979 626.290894,636.973267 
M274.792114,534.151489 
	C269.408081,530.790771 263.831390,528.285522 257.195587,529.325134 
	C243.011841,531.547363 233.772324,542.963989 234.152313,557.954895 
	C234.520203,572.468811 243.985962,582.945435 258.157227,584.576965 
	C264.600159,585.318848 269.963257,582.992371 274.890808,578.111877 
	C274.782318,584.400696 273.423004,589.333069 267.975922,591.698059 
	C262.887238,593.907288 257.928589,593.711731 253.890198,589.088013 
	C253.324265,588.440002 252.209045,587.959473 251.337326,587.942139 
	C246.081528,587.837280 240.822571,587.889954 235.564682,587.889954 
	C235.170425,588.374329 234.776169,588.858643 234.381912,589.343018 
	C237.151428,593.077209 239.250229,597.707275 242.816467,600.377380 
	C253.431717,608.325195 265.241089,607.614197 276.911133,602.773743 
	C287.394043,598.425720 290.740448,589.673462 290.678040,578.978027 
	C290.589722,563.836365 290.690979,548.693726 290.677673,533.551453 
	C290.676971,532.770203 290.361633,531.989258 290.131409,530.924194 
	C285.846100,530.924194 281.688232,530.777405 277.556122,531.038391 
	C276.644836,531.096069 275.824860,532.599182 274.792114,534.151489 
M517.817261,609.170044 
	C514.210327,608.874634 513.844360,611.105347 513.887756,613.942261 
	C514.045776,624.267822 514.108276,634.595032 514.171692,644.921753 
	C514.182129,646.615784 514.015869,648.310791 513.857117,651.489197 
	C512.012573,648.786743 511.041321,647.479187 510.189972,646.097839 
	C504.335632,636.598694 498.067322,627.318542 492.822510,617.492676 
	C489.294617,610.883423 484.967468,608.096680 477.448639,608.978760 
	C473.500610,609.441895 471.952393,610.258545 471.998505,614.459534 
	C472.190399,631.946838 471.949524,649.438660 472.118439,666.926514 
	C472.253021,680.862671 469.562592,678.574829 484.297211,678.937805 
	C488.029327,679.029724 489.244080,677.677795 489.160156,673.996887 
	C488.924805,663.674133 488.976562,653.344604 488.955994,643.017639 
	C488.953369,641.691895 489.193024,640.365662 489.461792,637.568359 
	C496.938324,649.459351 504.032959,659.755066 510.033142,670.653320 
	C513.681580,677.280090 518.076050,679.733459 525.507507,679.089294 
	C530.011414,678.698853 531.044006,677.299744 530.999451,673.130066 
	C530.814331,655.809204 530.921997,638.485229 530.922241,621.162354 
	C530.922363,609.140320 530.922302,609.140320 517.817261,609.170044 
M447.253876,611.056824 
	C447.196503,621.043091 447.139984,631.029419 447.081451,641.015686 
	C447.053131,645.843323 447.182739,650.678772 446.948456,655.496460 
	C446.676270,661.093323 444.041901,663.888000 439.269318,664.167847 
	C433.923218,664.481384 430.945679,662.157288 429.978882,656.606262 
	C429.524445,653.996948 429.313232,651.316772 429.289581,648.666077 
	C429.207886,639.510071 429.360016,630.351501 429.232666,621.196472 
	C429.039337,607.297546 431.532013,609.482361 417.038727,609.091003 
	C412.751801,608.975342 411.662628,610.683350 411.721863,614.663147 
	C411.917542,627.812805 411.771881,640.967224 411.882416,654.118713 
	C411.905975,656.922913 412.103973,659.817261 412.825531,662.508179 
	C416.026855,674.446655 427.251495,681.100891 441.844025,679.942078 
	C454.509460,678.936340 463.909821,670.219360 464.624420,657.017090 
	C465.424164,642.241821 464.965271,627.395630 464.883575,612.581238 
	C464.877472,611.480713 463.494598,609.440491 462.759125,609.443909 
	C457.696381,609.467041 452.635620,609.918030 447.253876,611.056824 
M440.007782,521.591492 
	C440.007782,519.004700 440.007782,516.417847 440.007782,513.926270 
	C434.373413,513.926270 429.481110,513.926270 424.153931,513.926270 
	C424.153931,520.785400 424.153931,527.199707 424.153931,533.810974 
	C408.210632,526.388123 395.767426,528.688416 388.046570,540.189575 
	C380.398468,551.582275 382.101746,568.841370 391.772217,577.942322 
	C400.806671,586.444702 414.190826,586.856140 424.750092,578.722778 
	C424.994598,580.211182 425.212189,581.535828 425.407898,582.727295 
	C430.397339,582.727295 434.998810,582.727295 440.007782,582.727295 
	C440.007782,562.489746 440.007782,542.529724 440.007782,521.591492 
M554.390137,661.941528 
	C553.423828,656.332520 549.816528,655.001343 544.712463,655.785706 
	C542.923645,656.060669 541.050659,655.943054 539.229126,655.817139 
	C535.958496,655.591064 534.621643,656.998108 535.070068,660.240723 
	C536.112915,667.781189 539.106750,674.603394 546.569763,677.029053 
	C552.692078,679.018982 559.603027,679.951111 566.000732,679.411377 
	C576.180115,678.552673 582.377747,672.149658 583.870117,663.339233 
	C585.581360,653.236755 582.546570,646.855530 573.063110,641.408813 
	C569.323853,639.261230 565.277588,637.653137 561.408691,635.724060 
	C559.628174,634.836365 557.794556,633.951904 556.238098,632.740662 
	C553.384277,630.519836 553.074097,627.718323 555.401489,624.935852 
	C557.616211,622.288025 562.943848,621.990479 564.085815,624.934631 
	C566.444397,631.015686 571.136902,629.771301 575.584595,629.792908 
	C584.490479,629.836243 585.898865,627.747498 581.471741,619.763794 
	C579.701904,616.572144 576.850830,613.525635 573.750916,611.616028 
	C566.206421,606.968506 557.959106,606.779297 549.771790,610.086975 
	C541.957458,613.243958 536.620544,618.640503 536.100037,627.474487 
	C535.572571,636.426025 540.609497,642.143860 548.037415,646.019470 
	C552.454285,648.323975 557.169556,650.051208 561.628296,652.282532 
	C566.450928,654.695862 567.730530,658.194885 565.481262,661.891785 
	C563.177795,665.677429 559.264893,665.924011 554.390137,661.941528 
M546.571106,583.006531 
	C549.306580,583.006531 552.041992,583.006531 554.664612,583.006531 
	C554.664612,565.233765 554.664612,548.324219 554.664612,530.670227 
	C549.053528,532.663330 542.425903,527.389526 538.006958,534.406189 
	C527.905212,526.659851 514.957520,527.382751 505.775909,536.425720 
	C496.049316,546.005371 494.959778,563.882812 503.464691,574.969727 
	C507.143982,579.765991 511.949463,582.777039 517.887878,584.104370 
	C525.655212,585.840515 532.613953,584.301697 538.981689,578.778259 
	C538.754150,585.031372 543.051453,582.403809 546.571106,583.006531 
M235.334000,663.489746 
	C235.334000,651.390198 235.334000,639.290588 235.334000,627.107178 
	C229.857742,627.107178 225.009384,627.107178 219.824402,627.107178 
	C219.824402,633.521362 219.905640,639.499329 219.798279,645.473877 
	C219.714859,650.116394 219.815704,654.823792 219.065399,659.375549 
	C218.298676,664.026917 214.484695,666.344788 209.844147,665.795044 
	C205.389877,665.267334 202.893661,662.713257 202.820374,658.195862 
	C202.682724,649.708984 202.707260,641.219604 202.627945,632.731567 
	C202.610092,630.821472 202.442566,628.912781 202.340530,626.937622 
	C196.944595,626.937622 192.167572,626.937622 186.963379,626.937622 
	C186.963379,637.668091 187.054352,648.133240 186.934692,658.596069 
	C186.838287,667.026489 189.166702,674.329895 197.198349,678.124268 
	C205.058762,681.837769 212.958282,681.825439 219.450623,675.632385 
	C223.805817,681.757690 229.747650,677.520447 235.333557,679.133545 
	C235.333557,673.729370 235.333557,669.106323 235.334000,663.489746 
M289.800171,661.498291 
	C289.661530,654.841248 289.982330,648.135254 289.280548,641.538147 
	C288.119202,630.620728 281.441132,624.616455 270.489563,625.121277 
	C265.689423,625.342468 260.988739,627.721130 256.084320,629.166809 
	C256.113373,629.307983 255.867920,628.115906 255.658417,627.098511 
	C250.809204,627.098511 246.246063,627.098511 241.711349,627.098511 
	C241.711349,644.471069 241.711349,661.395630 241.711349,678.452332 
	C246.960052,678.452332 251.838272,678.452332 257.047546,678.452332 
	C257.047546,674.732056 257.035004,671.414062 257.050171,668.096191 
	C257.081329,661.266113 256.849915,654.419556 257.254639,647.611145 
	C257.580811,642.124451 260.894226,639.553955 266.214233,639.711304 
	C271.006226,639.853088 273.565277,642.382629 273.914581,647.693970 
	C274.132904,651.013000 274.007812,654.355652 274.012421,657.687683 
	C274.021973,664.611816 274.015289,671.535950 274.015289,678.396240 
	C279.689270,678.396240 284.565704,678.396240 289.800079,678.396240 
	C289.800079,672.791504 289.800079,667.644165 289.800171,661.498291 
M476.084198,567.543640 
	C468.481476,572.759155 462.129242,569.947266 461.508942,560.979919 
	C461.256470,557.330261 461.408081,553.651550 461.401276,549.986084 
	C461.389648,543.728149 461.398041,537.470276 461.398041,531.203491 
	C455.879486,531.203491 451.115051,531.203491 445.906891,531.203491 
	C445.906891,542.263733 445.959961,553.053406 445.889832,563.842285 
	C445.835510,572.202881 448.707611,579.125061 456.570618,582.606262 
	C464.330292,586.041626 472.132141,586.063232 478.331909,579.704773 
	C482.686584,585.991089 488.722687,581.558594 493.818604,583.154236 
	C493.818604,565.377319 493.818604,548.328308 493.818604,531.207886 
	C488.710205,531.207886 483.956879,531.207886 478.695709,531.207886 
	C478.695709,540.102356 478.880371,548.730530 478.600220,557.343689 
	C478.495544,560.562317 477.307129,563.745728 476.084198,567.543640 
M340.403625,646.849304 
	C342.638672,646.849304 344.873718,646.849304 347.196014,646.849304 
	C345.386566,633.227234 332.557861,624.035645 317.686890,624.994629 
	C303.813904,625.889282 292.973785,637.647461 292.764526,652.027771 
	C292.547333,666.950928 303.109528,678.947876 317.562836,680.194763 
	C332.218933,681.459167 345.135101,672.424133 347.310455,658.908508 
	C340.518005,659.736267 333.589111,656.625000 327.617462,663.484192 
	C323.555969,668.149292 315.038971,666.245178 311.196411,661.297974 
	C307.061523,655.974426 307.669067,647.030273 312.472900,642.506348 
	C316.744507,638.483643 325.243927,638.012756 328.726959,642.710449 
	C331.813873,646.873840 335.303711,647.085876 340.403625,646.849304 
M387.948273,653.500000 
	C387.948273,638.919312 387.948273,624.338562 387.948273,609.584778 
	C382.389252,609.584778 377.514374,609.584778 372.584290,609.584778 
	C372.584290,632.810974 372.584290,655.647766 372.584290,678.394531 
	C377.917175,678.394531 382.795563,678.394531 387.948242,678.394531 
	C387.948242,670.122253 387.948242,662.311157 387.948273,653.500000 
M350.830414,670.434692 
	C350.830414,673.045898 350.830414,675.657104 350.830414,678.518066 
	C356.213623,678.518066 360.943756,678.518066 365.859802,678.518066 
	C365.859802,661.167358 365.859802,644.140259 365.859802,627.119812 
	C360.687256,627.119812 355.964111,627.119812 350.830383,627.119812 
	C350.830383,641.507141 350.830383,655.478271 350.830414,670.434692 
M366.342834,617.260254 
	C366.342834,614.682861 366.342834,612.105469 366.342834,609.604492 
	C360.697937,609.604492 355.952484,609.604492 351.200684,609.604492 
	C351.200684,613.583252 351.200684,617.153137 351.200684,621.119263 
	C355.552002,621.119263 359.539795,621.319336 363.481720,620.982727 
	C364.505341,620.895325 365.385681,619.130249 366.342834,617.260254 
z"/>
<path fill="#FFFEFD" opacity="1.000000" stroke="none" 
	d="
M726.000000,75.531342 
	C725.156067,72.347328 724.388977,68.674911 723.456360,65.045029 
	C714.685242,30.905439 686.595337,6.162726 651.245056,1.308408 
	C675.926880,1.000000 700.853699,1.000000 726.000000,1.000000 
	C726.000000,25.687128 726.000000,50.374905 726.000000,75.531342 
z"/>
<path fill="#FFFEFD" opacity="1.000000" stroke="none" 
	d="
M651.468628,726.000000 
	C654.653809,725.155701 658.360596,724.492188 661.953247,723.439087 
	C697.789856,712.934509 718.798523,689.137146 725.691101,652.234009 
	C726.000000,676.594055 726.000000,701.188049 726.000000,726.000000 
	C701.312866,726.000000 676.625122,726.000000 651.468628,726.000000 
z"/>
<path fill="#FFFEFD" opacity="1.000000" stroke="none" 
	d="
M0.999994,652.468628 
	C1.842156,655.314209 2.579978,658.658997 3.542510,661.937866 
	C14.063193,697.776184 37.841537,718.805725 74.763435,725.691101 
	C50.406464,726.000000 25.812927,726.000000 1.000000,726.000000 
	C1.000000,701.646240 1.000000,677.291748 0.999994,652.468628 
z"/>
<path fill="#FFFFFE" opacity="1.000000" stroke="none" 
	d="
M230.407349,96.624435 
	C237.501144,106.536049 241.784622,117.286507 244.177109,128.713654 
	C276.784882,116.394722 307.991730,112.554306 335.611816,141.168961 
	C335.611816,138.413544 335.611816,135.984268 335.611816,133.555008 
	C335.611816,131.073181 335.611816,128.591370 335.611816,125.669739 
	C353.526428,125.669739 371.045502,125.669739 388.839691,125.669739 
	C388.972229,126.826263 389.212677,127.941048 389.211517,129.055573 
	C389.152191,185.379669 389.157562,241.704147 388.891785,298.027344 
	C388.856659,305.476166 387.834778,312.988525 386.564850,320.349823 
	C383.430359,338.519196 373.609985,352.537689 358.763641,363.195190 
	C336.469696,379.198975 311.233734,384.960785 284.241791,384.438080 
	C266.518951,384.094849 249.458237,380.792480 233.922119,371.830719 
	C216.560837,361.816132 204.747116,347.326599 199.525269,327.775482 
	C199.062485,326.042755 198.857849,324.241089 198.424957,321.880676 
	C200.369781,321.732086 201.946381,321.509094 203.523315,321.506836 
	C221.020691,321.481781 238.518616,321.556885 256.015076,321.427643 
	C259.025574,321.405396 260.709778,322.291504 262.310181,324.973083 
	C267.594360,333.827209 276.124786,337.807770 285.963806,338.884796 
	C313.914551,341.944427 333.586639,325.042114 334.970459,296.985504 
	C335.147003,293.406128 334.994629,289.810516 334.994629,284.998810 
	C326.120728,298.581207 314.405884,306.135345 299.773712,309.050873 
	C260.421356,316.891937 219.129730,294.915741 203.323547,257.105591 
	C199.652893,248.325027 198.280914,238.581192 195.888535,229.271011 
	C195.521408,227.842316 195.356583,226.361649 195.193283,225.441086 
	C183.307129,226.866104 171.713150,228.801208 160.045074,229.501266 
	C148.435318,230.197830 136.751129,229.653885 124.406479,229.653885 
	C124.406479,254.834335 124.406479,279.531403 124.406479,304.527863 
	C104.644768,304.527863 85.578133,304.527863 66.196091,304.527863 
	C66.196091,224.961090 66.196091,145.580780 66.196091,65.918808 
	C67.506432,65.806808 68.626472,65.623955 69.745827,65.628098 
	C100.406136,65.741486 131.070114,65.644600 161.724274,66.146164 
	C170.656616,66.292328 179.657181,67.652718 188.457642,69.338120 
	C205.897507,72.678078 219.769119,81.941399 230.407349,96.624435 
M274.073761,256.559204 
	C299.644714,266.875214 326.525696,255.145676 333.385010,229.979660 
	C335.299194,222.956818 335.528229,215.114304 334.838745,207.807434 
	C332.452454,182.519363 308.402313,165.243301 283.778168,170.486984 
	C265.184784,174.446426 251.442871,189.243347 249.121414,207.804443 
	C246.495316,228.801208 255.651901,247.042862 274.073761,256.559204 
M172.398361,122.960419 
	C156.782150,117.109917 140.630020,119.773407 124.569046,119.208374 
	C124.569046,138.526276 124.569046,157.096695 124.569046,176.034760 
	C132.219070,176.034760 139.538162,176.263992 146.835938,175.967865 
	C153.625778,175.692368 160.551270,175.571762 167.135544,174.112671 
	C179.101440,171.460968 185.698441,163.740082 186.954819,152.578690 
	C188.573959,138.194580 184.410950,129.365509 172.398361,122.960419 
z"/>
<path fill="#302C2C" opacity="1.000000" stroke="none" 
	d="
M504.731323,108.443146 
	C497.176636,94.490982 485.528748,88.492561 472.128510,91.398056 
	C459.058899,94.231857 448.829224,106.033005 448.260376,120.542053 
	C448.006805,127.010010 449.005951,133.949524 451.251129,140.001846 
	C455.454712,151.333176 464.136688,158.088730 476.519745,158.907623 
	C489.003357,159.733139 498.260651,153.887131 503.733154,143.081161 
	C506.520386,137.577484 509.735168,136.000122 515.595215,136.223999 
	C527.875549,136.693100 540.186340,136.366257 552.533020,136.366257 
	C549.273987,166.009384 522.772278,200.434692 477.398956,199.552170 
	C434.481903,198.717453 402.329376,165.251724 403.048187,123.023521 
	C403.749359,81.828217 437.461639,49.674755 479.486298,50.119778 
	C517.172791,50.518864 552.057861,81.010635 552.085632,114.061417 
	C537.797546,114.061417 523.500671,114.216133 509.218384,113.830376 
	C507.733490,113.790268 506.335175,110.542847 504.731323,108.443146 
z"/>
<path fill="#F8BF84" opacity="1.000000" stroke="none" 
	d="
M625.966125,636.988708 
	C622.749573,648.953979 619.652649,660.859680 617.070984,672.876099 
	C616.092957,677.428284 614.365906,679.213867 609.481384,679.002014 
	C597.271973,678.472351 599.999451,680.386414 597.069031,669.489746 
	C592.183716,651.323792 587.635925,633.067017 582.969299,614.842529 
	C582.572327,613.292603 582.350464,611.697876 581.885925,609.286011 
	C587.623291,609.286011 592.742920,609.011230 597.787964,609.502625 
	C598.883301,609.609253 600.204285,612.355164 600.581177,614.070129 
	C602.867371,624.473999 604.898804,634.933716 607.044739,645.368774 
	C607.437439,647.278015 607.965332,649.159485 609.359253,651.204407 
	C609.823364,649.754822 610.397949,648.330261 610.734009,646.851562 
	C613.205383,635.976013 615.874939,625.136292 617.953308,614.184875 
	C618.851746,609.450623 621.455139,608.891785 625.342468,609.114685 
	C629.218750,609.336914 633.131836,608.174072 634.167114,614.273926 
	C635.975403,624.927856 638.698364,635.427002 641.060547,645.986023 
	C641.449219,647.723511 641.952759,649.435303 643.521545,651.246338 
	C644.318909,647.827209 645.172302,644.419983 645.902710,640.986633 
	C647.842346,631.869141 649.833801,622.760437 651.579346,613.605225 
	C652.183411,610.437134 653.504272,608.954285 656.857117,609.115051 
	C660.974609,609.312500 665.108826,609.162170 670.036743,609.162170 
	C669.647705,611.441467 669.500732,613.007141 669.106262,614.507690 
	C663.857361,634.472839 658.496582,654.409119 653.373718,674.406372 
	C652.506714,677.790527 651.013489,679.026123 647.546814,678.940857 
	C634.257935,678.614258 637.143677,680.521973 634.076233,668.385498 
	C631.432861,657.926941 628.882385,647.444946 625.966125,636.988708 
z"/>
<path fill="#FFFDFB" opacity="1.000000" stroke="none" 
	d="
M274.877502,533.794067 
	C275.824860,532.599182 276.644836,531.096069 277.556122,531.038391 
	C281.688232,530.777405 285.846100,530.924194 290.131409,530.924194 
	C290.361633,531.989258 290.676971,532.770203 290.677673,533.551453 
	C290.690979,548.693726 290.589722,563.836365 290.678040,578.978027 
	C290.740448,589.673462 287.394043,598.425720 276.911133,602.773743 
	C265.241089,607.614197 253.431717,608.325195 242.816467,600.377380 
	C239.250229,597.707275 237.151428,593.077209 234.381912,589.343018 
	C234.776169,588.858643 235.170425,588.374329 235.564682,587.889954 
	C240.822571,587.889954 246.081528,587.837280 251.337326,587.942139 
	C252.209045,587.959473 253.324265,588.440002 253.890198,589.088013 
	C257.928589,593.711731 262.887238,593.907288 267.975922,591.698059 
	C273.423004,589.333069 274.782318,584.400696 274.890808,578.111877 
	C269.963257,582.992371 264.600159,585.318848 258.157227,584.576965 
	C243.985962,582.945435 234.520203,572.468811 234.152313,557.954895 
	C233.772324,542.963989 243.011841,531.547363 257.195587,529.325134 
	C263.831390,528.285522 269.408081,530.790771 274.877502,533.794067 
M271.166077,547.324768 
	C265.471436,543.008850 259.520416,542.703125 254.736526,546.480652 
	C250.118820,550.126953 248.579132,556.565125 250.954926,562.293457 
	C253.185089,567.670593 258.378632,570.674683 264.169342,569.937134 
	C274.256073,568.652344 278.115845,557.338379 271.166077,547.324768 
z"/>
<path fill="#F8BF84" opacity="1.000000" stroke="none" 
	d="
M518.279785,609.164490 
	C530.922302,609.140320 530.922363,609.140320 530.922241,621.162354 
	C530.921997,638.485229 530.814331,655.809204 530.999451,673.130066 
	C531.044006,677.299744 530.011414,678.698853 525.507507,679.089294 
	C518.076050,679.733459 513.681580,677.280090 510.033142,670.653320 
	C504.032959,659.755066 496.938324,649.459351 489.461792,637.568359 
	C489.193024,640.365662 488.953369,641.691895 488.955994,643.017639 
	C488.976562,653.344604 488.924805,663.674133 489.160156,673.996887 
	C489.244080,677.677795 488.029327,679.029724 484.297211,678.937805 
	C469.562592,678.574829 472.253021,680.862671 472.118439,666.926514 
	C471.949524,649.438660 472.190399,631.946838 471.998505,614.459534 
	C471.952393,610.258545 473.500610,609.441895 477.448639,608.978760 
	C484.967468,608.096680 489.294617,610.883423 492.822510,617.492676 
	C498.067322,627.318542 504.335632,636.598694 510.189972,646.097839 
	C511.041321,647.479187 512.012573,648.786743 513.857117,651.489197 
	C514.015869,648.310791 514.182129,646.615784 514.171692,644.921753 
	C514.108276,634.595032 514.045776,624.267822 513.887756,613.942261 
	C513.844360,611.105347 514.210327,608.874634 518.279785,609.164490 
z"/>
<path fill="#322C2C" opacity="1.000000" stroke="none" 
	d="
M126.990753,653.968933 
	C123.930893,667.729858 111.106895,678.583374 96.331787,679.916992 
	C79.640732,681.423523 64.904289,672.713989 58.704327,657.678284 
	C51.217682,639.522217 59.672447,618.526550 77.535210,610.915466 
	C96.252899,602.940063 117.979607,611.317383 125.762444,629.567078 
	C126.512619,631.326233 126.857704,633.258179 127.579399,635.764709 
	C121.590874,635.764709 116.296432,635.910767 111.022499,635.646912 
	C109.906822,635.591187 108.566597,634.235229 107.838310,633.140137 
	C102.036484,624.415588 93.682968,621.393921 85.132530,625.079773 
	C76.555618,628.777039 71.846535,639.589050 74.476173,649.546875 
	C77.075920,659.391602 84.679482,665.015381 94.222572,664.206970 
	C99.800308,663.734436 104.037651,660.923279 106.829430,656.301331 
	C108.536552,653.475098 110.511604,652.489685 113.686096,652.707642 
	C117.828270,652.992004 121.997993,652.875061 126.575867,653.298950 
	C126.995872,653.666992 126.990753,653.968933 126.990753,653.968933 
z"/>
<path fill="#F8BF85" opacity="1.000000" stroke="none" 
	d="
M447.414062,610.644104 
	C452.635620,609.918030 457.696381,609.467041 462.759125,609.443909 
	C463.494598,609.440491 464.877472,611.480713 464.883575,612.581238 
	C464.965271,627.395630 465.424164,642.241821 464.624420,657.017090 
	C463.909821,670.219360 454.509460,678.936340 441.844025,679.942078 
	C427.251495,681.100891 416.026855,674.446655 412.825531,662.508179 
	C412.103973,659.817261 411.905975,656.922913 411.882416,654.118713 
	C411.771881,640.967224 411.917542,627.812805 411.721863,614.663147 
	C411.662628,610.683350 412.751801,608.975342 417.038727,609.091003 
	C431.532013,609.482361 429.039337,607.297546 429.232666,621.196472 
	C429.360016,630.351501 429.207886,639.510071 429.289581,648.666077 
	C429.313232,651.316772 429.524445,653.996948 429.978882,656.606262 
	C430.945679,662.157288 433.923218,664.481384 439.269318,664.167847 
	C444.041901,663.888000 446.676270,661.093323 446.948456,655.496460 
	C447.182739,650.678772 447.053131,645.843323 447.081451,641.015686 
	C447.139984,631.029419 447.196503,621.043091 447.414062,610.644104 
z"/>
<path fill="#FFFDFB" opacity="1.000000" stroke="none" 
	d="
M440.007782,522.080566 
	C440.007782,542.529724 440.007782,562.489746 440.007782,582.727295 
	C434.998810,582.727295 430.397339,582.727295 425.407898,582.727295 
	C425.212189,581.535828 424.994598,580.211182 424.750092,578.722778 
	C414.190826,586.856140 400.806671,586.444702 391.772217,577.942322 
	C382.101746,568.841370 380.398468,551.582275 388.046570,540.189575 
	C395.767426,528.688416 408.210632,526.388123 424.153931,533.810974 
	C424.153931,527.199707 424.153931,520.785400 424.153931,513.926270 
	C429.481110,513.926270 434.373413,513.926270 440.007782,513.926270 
	C440.007782,516.417847 440.007782,519.004700 440.007782,522.080566 
M409.894897,543.926086 
	C403.155396,545.604370 399.421967,549.647644 399.006104,555.718506 
	C398.594482,561.727478 401.508026,566.887878 406.735016,568.959045 
	C411.954315,571.027039 416.885529,570.387878 421.096191,566.523865 
	C424.961151,562.977173 426.179962,556.789978 424.225006,551.817322 
	C422.058411,546.306335 418.066345,543.948364 409.894897,543.926086 
z"/>
<path fill="#FFFEFC" opacity="1.000000" stroke="none" 
	d="
M109.909576,547.098755 
	C103.640167,559.008362 93.116432,562.046204 80.684540,561.135742 
	C79.693748,561.063232 78.690025,561.141235 77.693810,561.184143 
	C77.374863,561.197937 77.060768,561.324158 76.075729,561.557007 
	C76.075729,568.398560 76.075729,575.427795 76.075729,582.721191 
	C70.161049,582.721191 64.908310,582.721191 59.237709,582.721191 
	C59.237709,559.931152 59.237709,537.094788 59.237709,513.434509 
	C71.873932,513.966980 84.703873,511.853271 97.155785,515.480713 
	C107.000443,518.348633 112.752571,530.156006 110.672729,541.511353 
	C110.373627,543.144348 109.917953,544.748718 109.693283,546.766235 
	C109.851814,547.166138 109.909576,547.098755 109.909576,547.098755 
M75.943993,544.027771 
	C79.366600,546.473450 88.526779,546.133728 91.518127,543.301575 
	C94.389328,540.583130 94.747810,537.202637 93.212585,533.717468 
	C91.332497,529.449341 84.327156,527.888245 75.888916,529.834106 
	C75.888916,534.203491 75.888916,538.657532 75.943993,544.027771 
z"/>
<path fill="#F8BF84" opacity="1.000000" stroke="none" 
	d="
M554.632202,662.250854 
	C559.264893,665.924011 563.177795,665.677429 565.481262,661.891785 
	C567.730530,658.194885 566.450928,654.695862 561.628296,652.282532 
	C557.169556,650.051208 552.454285,648.323975 548.037415,646.019470 
	C540.609497,642.143860 535.572571,636.426025 536.100037,627.474487 
	C536.620544,618.640503 541.957458,613.243958 549.771790,610.086975 
	C557.959106,606.779297 566.206421,606.968506 573.750916,611.616028 
	C576.850830,613.525635 579.701904,616.572144 581.471741,619.763794 
	C585.898865,627.747498 584.490479,629.836243 575.584595,629.792908 
	C571.136902,629.771301 566.444397,631.015686 564.085815,624.934631 
	C562.943848,621.990479 557.616211,622.288025 555.401489,624.935852 
	C553.074097,627.718323 553.384277,630.519836 556.238098,632.740662 
	C557.794556,633.951904 559.628174,634.836365 561.408691,635.724060 
	C565.277588,637.653137 569.323853,639.261230 573.063110,641.408813 
	C582.546570,646.855530 585.581360,653.236755 583.870117,663.339233 
	C582.377747,672.149658 576.180115,678.552673 566.000732,679.411377 
	C559.603027,679.951111 552.692078,679.018982 546.569763,677.029053 
	C539.106750,674.603394 536.112915,667.781189 535.070068,660.240723 
	C534.621643,656.998108 535.958496,655.591064 539.229126,655.817139 
	C541.050659,655.943054 542.923645,656.060669 544.712463,655.785706 
	C549.816528,655.001343 553.423828,656.332520 554.632202,662.250854 
z"/>
<path fill="#FFFDFB" opacity="1.000000" stroke="none" 
	d="
M326.048096,543.164001 
	C333.134583,528.728455 350.127167,524.847046 362.961151,534.382202 
	C367.452209,527.481445 374.034424,532.636169 379.625885,530.699707 
	C379.625885,548.355713 379.625885,565.254700 379.625885,582.581055 
	C374.802399,582.581055 369.912659,582.581055 364.499695,582.581055 
	C364.296875,581.642578 364.014618,580.336487 363.670441,578.743958 
	C355.822632,586.002991 346.997253,586.335632 338.012665,582.512268 
	C328.804535,578.593689 323.917297,570.921875 323.113312,561.150391 
	C322.714600,556.304382 323.918640,551.326355 324.806702,545.852661 
	C325.493286,544.586121 325.770691,543.875061 326.048096,543.164001 
M342.532349,546.950134 
	C341.506378,548.445068 340.230652,549.828003 339.500641,551.455750 
	C337.196350,556.593689 338.445953,562.821838 342.329376,566.645935 
	C346.017822,570.278015 352.372253,571.206970 357.164917,568.814819 
	C361.749847,566.526367 364.499969,561.177917 364.033447,555.456787 
	C363.197632,545.206909 352.623840,540.648438 342.532349,546.950134 
z"/>
<path fill="#FFFDFC" opacity="1.000000" stroke="none" 
	d="
M546.099854,583.006531 
	C543.051453,582.403809 538.754150,585.031372 538.981689,578.778259 
	C532.613953,584.301697 525.655212,585.840515 517.887878,584.104370 
	C511.949463,582.777039 507.143982,579.765991 503.464691,574.969727 
	C494.959778,563.882812 496.049316,546.005371 505.775909,536.425720 
	C514.957520,527.382751 527.905212,526.659851 538.006958,534.406189 
	C542.425903,527.389526 549.053528,532.663330 554.664612,530.670227 
	C554.664612,548.324219 554.664612,565.233765 554.664612,583.006531 
	C552.041992,583.006531 549.306580,583.006531 546.099854,583.006531 
M524.750488,543.861206 
	C517.366699,545.288818 512.885559,550.782288 513.412537,557.760620 
	C513.933655,564.662048 518.918213,569.738281 525.477539,570.047668 
	C533.200317,570.411865 538.842834,565.218872 539.134216,557.478821 
	C539.443176,549.273743 534.512268,544.292847 524.750488,543.861206 
z"/>
<path fill="#FFFCFA" opacity="1.000000" stroke="none" 
	d="
M587.988525,543.053284 
	C589.158447,541.851013 590.447144,540.742310 591.479370,539.431580 
	C599.304382,529.494995 612.723206,526.266846 624.305908,531.593384 
	C635.458984,536.722412 641.801880,549.053955 639.409363,561.736328 
	C626.814575,561.736328 614.095825,561.736328 601.258423,561.736328 
	C603.182373,570.022522 612.106384,574.622131 618.221130,569.880188 
	C624.596436,564.936218 631.050598,567.368530 637.706177,566.576233 
	C634.819092,576.508240 625.308167,583.787170 614.599854,584.670105 
	C603.830994,585.558044 592.690674,578.900940 587.967896,568.716431 
	C584.050903,560.269348 584.812317,551.915833 588.295898,543.313354 
	C588.029053,542.984985 587.988525,543.053284 587.988525,543.053284 
M605.885010,544.181274 
	C604.258667,546.172607 602.632263,548.164001 600.610474,550.639526 
	C609.259827,550.639526 616.585266,550.639526 624.047852,550.639526 
	C621.096802,542.712280 615.203918,540.543579 605.885010,544.181274 
z"/>
<path fill="#FFFDFB" opacity="1.000000" stroke="none" 
	d="
M109.819443,547.196533 
	C110.737442,545.758423 111.764481,544.333313 112.625893,542.814331 
	C118.881401,531.783447 131.583374,526.789612 144.970963,530.135254 
	C156.711899,533.069397 165.010284,544.097229 165.027069,556.788086 
	C165.043976,569.572327 157.066254,580.293762 145.123032,583.537720 
	C123.310295,589.462158 105.041840,572.006775 109.860954,549.849609 
	C110.002144,549.200439 110.077133,548.536804 110.046280,547.489380 
	C109.909576,547.098755 109.851814,547.166138 109.819443,547.196533 
M147.166580,564.389954 
	C151.928970,554.896790 147.720245,544.943298 138.525452,543.953979 
	C132.579941,543.314148 127.168625,546.744141 125.294380,552.340393 
	C123.291016,558.322205 125.562416,564.960083 130.695343,568.124146 
	C136.054520,571.427612 141.396286,570.399841 147.166580,564.389954 
z"/>
<path fill="#322D2C" opacity="1.000000" stroke="none" 
	d="
M127.325745,654.162537 
	C126.990753,653.968933 126.995872,653.666992 126.998901,653.516052 
	C127.627525,650.837769 128.250671,648.309814 128.879089,645.783203 
	C132.477646,631.315430 145.679657,622.835022 160.830582,625.257507 
	C175.560196,627.612610 185.125870,640.021362 183.987427,655.297058 
	C182.930939,669.473145 171.673340,679.878052 157.032471,680.210266 
	C140.931488,680.575623 131.781250,672.521240 127.325745,654.162537 
M156.427460,639.682434 
	C145.950058,639.012207 140.235992,651.583008 145.916000,660.211365 
	C149.006805,664.906555 154.649857,666.809753 159.882172,665.043762 
	C165.361298,663.194458 168.674698,658.013489 168.342163,651.815430 
	C167.991745,645.284424 164.253967,641.208984 156.427460,639.682434 
z"/>
<path fill="#322C2C" opacity="1.000000" stroke="none" 
	d="
M235.333771,663.986511 
	C235.333557,669.106323 235.333557,673.729370 235.333557,679.133545 
	C229.747650,677.520447 223.805817,681.757690 219.450623,675.632385 
	C212.958282,681.825439 205.058762,681.837769 197.198349,678.124268 
	C189.166702,674.329895 186.838287,667.026489 186.934692,658.596069 
	C187.054352,648.133240 186.963379,637.668091 186.963379,626.937622 
	C192.167572,626.937622 196.944595,626.937622 202.340530,626.937622 
	C202.442566,628.912781 202.610092,630.821472 202.627945,632.731567 
	C202.707260,641.219604 202.682724,649.708984 202.820374,658.195862 
	C202.893661,662.713257 205.389877,665.267334 209.844147,665.795044 
	C214.484695,666.344788 218.298676,664.026917 219.065399,659.375549 
	C219.815704,654.823792 219.714859,650.116394 219.798279,645.473877 
	C219.905640,639.499329 219.824402,633.521362 219.824402,627.107178 
	C225.009384,627.107178 229.857742,627.107178 235.334000,627.107178 
	C235.334000,639.290588 235.334000,651.390198 235.333771,663.986511 
z"/>
<path fill="#342E2C" opacity="1.000000" stroke="none" 
	d="
M289.800110,661.997559 
	C289.800079,667.644165 289.800079,672.791504 289.800079,678.396240 
	C284.565704,678.396240 279.689270,678.396240 274.015289,678.396240 
	C274.015289,671.535950 274.021973,664.611816 274.012421,657.687683 
	C274.007812,654.355652 274.132904,651.013000 273.914581,647.693970 
	C273.565277,642.382629 271.006226,639.853088 266.214233,639.711304 
	C260.894226,639.553955 257.580811,642.124451 257.254639,647.611145 
	C256.849915,654.419556 257.081329,661.266113 257.050171,668.096191 
	C257.035004,671.414062 257.047546,674.732056 257.047546,678.452332 
	C251.838272,678.452332 246.960052,678.452332 241.711349,678.452332 
	C241.711349,661.395630 241.711349,644.471069 241.711349,627.098511 
	C246.246063,627.098511 250.809204,627.098511 255.658417,627.098511 
	C255.867920,628.115906 256.113373,629.307983 256.084320,629.166809 
	C260.988739,627.721130 265.689423,625.342468 270.489563,625.121277 
	C281.441132,624.616455 288.119202,630.620728 289.280548,641.538147 
	C289.982330,648.135254 289.661530,654.841248 289.800110,661.997559 
z"/>
<path fill="#FFFEFE" opacity="1.000000" stroke="none" 
	d="
M476.348511,567.244385 
	C477.307129,563.745728 478.495544,560.562317 478.600220,557.343689 
	C478.880371,548.730530 478.695709,540.102356 478.695709,531.207886 
	C483.956879,531.207886 488.710205,531.207886 493.818604,531.207886 
	C493.818604,548.328308 493.818604,565.377319 493.818604,583.154236 
	C488.722687,581.558594 482.686584,585.991089 478.331909,579.704773 
	C472.132141,586.063232 464.330292,586.041626 456.570618,582.606262 
	C448.707611,579.125061 445.835510,572.202881 445.889832,563.842285 
	C445.959961,553.053406 445.906891,542.263733 445.906891,531.203491 
	C451.115051,531.203491 455.879486,531.203491 461.398041,531.203491 
	C461.398041,537.470276 461.389648,543.728149 461.401276,549.986084 
	C461.408081,553.651550 461.256470,557.330261 461.508942,560.979919 
	C462.129242,569.947266 468.481476,572.759155 476.348511,567.244385 
z"/>
<path fill="#322D2C" opacity="1.000000" stroke="none" 
	d="
M339.954132,646.849304 
	C335.303711,647.085876 331.813873,646.873840 328.726959,642.710449 
	C325.243927,638.012756 316.744507,638.483643 312.472900,642.506348 
	C307.669067,647.030273 307.061523,655.974426 311.196411,661.297974 
	C315.038971,666.245178 323.555969,668.149292 327.617462,663.484192 
	C333.589111,656.625000 340.518005,659.736267 347.310455,658.908508 
	C345.135101,672.424133 332.218933,681.459167 317.562836,680.194763 
	C303.109528,678.947876 292.547333,666.950928 292.764526,652.027771 
	C292.973785,637.647461 303.813904,625.889282 317.686890,624.994629 
	C332.557861,624.035645 345.386566,633.227234 347.196014,646.849304 
	C344.873718,646.849304 342.638672,646.849304 339.954132,646.849304 
z"/>
<path fill="#FFFBF8" opacity="1.000000" stroke="none" 
	d="
M205.893829,542.561340 
	C205.729874,543.370667 205.845337,544.488647 205.352539,544.934631 
	C203.442993,546.663025 192.096161,545.263550 189.882309,543.820435 
	C188.169067,542.703613 185.781616,542.350525 183.670227,542.268616 
	C182.974091,542.241638 181.366531,544.630554 181.615982,545.042358 
	C182.575134,546.625793 183.879898,548.392517 185.491974,549.107849 
	C189.116241,550.716064 193.042603,551.626282 196.770004,553.023254 
	C202.579453,555.200745 206.890137,558.724243 207.325577,565.525208 
	C207.786972,572.731750 204.871750,578.125427 198.661209,581.686523 
	C185.516388,589.223572 168.405334,583.100281 165.364899,569.808594 
	C165.226395,569.203125 165.347153,568.538330 165.347153,567.380127 
	C169.766846,567.380127 174.053757,567.245850 178.320786,567.477722 
	C179.346268,567.533447 180.222641,568.990784 181.313126,569.477478 
	C183.445175,570.429016 185.665726,571.698242 187.877411,571.755066 
	C189.134018,571.787415 191.083176,569.877075 191.518219,568.469910 
	C191.831436,567.456665 190.483536,565.176758 189.313644,564.596130 
	C185.462402,562.684753 181.361725,561.272339 177.344482,559.699829 
	C168.998199,556.432739 165.525421,552.137695 165.787949,545.360718 
	C166.060928,538.313599 171.127380,532.352478 178.774078,530.081238 
	C188.909454,527.070862 197.561310,530.125183 205.362106,539.611694 
	C205.849457,540.800476 205.871658,541.680908 205.893829,542.561340 
z"/>
<path fill="#FEFBF7" opacity="1.000000" stroke="none" 
	d="
M588.063110,542.964661 
	C585.632568,542.944336 583.167847,542.944336 580.196411,542.944336 
	C580.196411,556.298584 580.196411,569.362610 580.196411,582.717163 
	C574.798950,582.717163 569.908936,582.717163 564.425293,582.717163 
	C564.425293,569.498840 564.425293,556.436096 564.425293,543.090759 
	C561.764343,542.932007 559.668457,542.806946 557.226501,542.661255 
	C557.226501,538.886536 557.226501,535.308533 557.226501,531.201782 
	C559.267822,531.035767 561.489075,530.855164 564.274902,530.628601 
	C564.274902,525.088196 564.274902,519.684509 564.274902,513.875488 
	C569.726196,513.875488 574.601990,513.875488 579.966187,513.875488 
	C579.966187,519.358093 579.966187,524.771606 579.966187,530.523132 
	C582.641357,530.768982 584.881592,530.974854 587.714844,531.235229 
	C587.714844,534.930115 587.714844,538.545837 587.851685,542.607422 
	C587.988525,543.053284 588.029053,542.984985 588.063110,542.964661 
z"/>
<path fill="#FFFCFA" opacity="1.000000" stroke="none" 
	d="
M206.342163,542.675232 
	C205.871658,541.680908 205.849457,540.800476 205.758331,539.665527 
	C205.571396,536.793945 205.453354,534.176941 205.322083,531.266418 
	C208.046097,531.042297 210.285614,530.858032 212.950104,530.638794 
	C212.950104,525.025024 212.950104,519.586914 212.950104,513.811951 
	C218.309052,513.811951 223.225998,513.811951 228.661560,513.811951 
	C228.661560,519.363525 228.661560,524.774231 228.661560,530.560303 
	C231.227402,530.774414 233.317993,530.948853 235.827759,531.158264 
	C235.827759,534.818542 235.827759,538.519836 235.827759,542.520020 
	C233.663574,542.720642 231.571884,542.914612 228.932083,543.159363 
	C228.932083,556.281433 228.932083,569.349487 228.932083,582.709106 
	C223.474991,582.709106 218.572800,582.709106 213.134918,582.709106 
	C213.134918,569.544312 213.134918,556.474487 213.134918,543.100525 
	C210.679733,542.980042 208.735107,542.884583 206.342163,542.675232 
z"/>
<path fill="#352E2C" opacity="1.000000" stroke="none" 
	d="
M387.948242,654.000000 
	C387.948242,662.311157 387.948242,670.122253 387.948242,678.394531 
	C382.795563,678.394531 377.917175,678.394531 372.584290,678.394531 
	C372.584290,655.647766 372.584290,632.810974 372.584290,609.584778 
	C377.514374,609.584778 382.389252,609.584778 387.948273,609.584778 
	C387.948273,624.338562 387.948273,638.919312 387.948242,654.000000 
z"/>
<path fill="#FFFBF8" opacity="1.000000" stroke="none" 
	d="
M325.584473,543.068970 
	C325.770691,543.875061 325.493286,544.586121 325.085510,545.486938 
	C316.904144,543.798218 312.225189,547.183472 312.121124,555.196106 
	C312.002899,564.296936 312.093811,573.400391 312.093811,582.755005 
	C306.846832,582.755005 302.084229,582.755005 296.891296,582.755005 
	C296.891296,565.601501 296.891296,548.447021 296.891296,530.679993 
	C301.901093,532.230957 307.725708,528.291931 312.133026,533.530823 
	C315.277802,532.050537 319.264832,530.173767 323.861115,528.010193 
	C324.357025,533.901489 324.738922,538.437744 325.584473,543.068970 
z"/>
<path fill="#302B2C" opacity="1.000000" stroke="none" 
	d="
M350.830383,669.942078 
	C350.830383,655.478271 350.830383,641.507141 350.830383,627.119812 
	C355.964111,627.119812 360.687256,627.119812 365.859802,627.119812 
	C365.859802,644.140259 365.859802,661.167358 365.859802,678.518066 
	C360.943756,678.518066 356.213623,678.518066 350.830414,678.518066 
	C350.830414,675.657104 350.830414,673.045898 350.830383,669.942078 
z"/>
<path fill="#342E2C" opacity="1.000000" stroke="none" 
	d="
M366.337341,617.697998 
	C365.385681,619.130249 364.505341,620.895325 363.481720,620.982727 
	C359.539795,621.319336 355.552002,621.119263 351.200684,621.119263 
	C351.200684,617.153137 351.200684,613.583252 351.200684,609.604492 
	C355.952484,609.604492 360.697937,609.604492 366.342834,609.604492 
	C366.342834,612.105469 366.342834,614.682861 366.337341,617.697998 
z"/>
<path fill="#EE8B1E" opacity="1.000000" stroke="none" 
	d="
M273.742188,256.376129 
	C255.651901,247.042862 246.495316,228.801208 249.121414,207.804443 
	C251.442871,189.243347 265.184784,174.446426 283.778168,170.486984 
	C308.402313,165.243301 332.452454,182.519363 334.838745,207.807434 
	C335.528229,215.114304 335.299194,222.956818 333.385010,229.979660 
	C326.525696,255.145676 299.644714,266.875214 273.742188,256.376129 
z"/>
<path fill="#EE8B20" opacity="1.000000" stroke="none" 
	d="
M172.756012,123.092117 
	C184.410950,129.365509 188.573959,138.194580 186.954819,152.578690 
	C185.698441,163.740082 179.101440,171.460968 167.135544,174.112671 
	C160.551270,175.571762 153.625778,175.692368 146.835938,175.967865 
	C139.538162,176.263992 132.219070,176.034760 124.569046,176.034760 
	C124.569046,157.096695 124.569046,138.526276 124.569046,119.208374 
	C140.630020,119.773407 156.782150,117.109917 172.756012,123.092117 
z"/>
<path fill="#EE8C20" opacity="1.000000" stroke="none" 
	d="
M271.431091,547.599548 
	C278.115845,557.338379 274.256073,568.652344 264.169342,569.937134 
	C258.378632,570.674683 253.185089,567.670593 250.954926,562.293457 
	C248.579132,556.565125 250.118820,550.126953 254.736526,546.480652 
	C259.520416,542.703125 265.471436,543.008850 271.431091,547.599548 
z"/>
<path fill="#EE8C20" opacity="1.000000" stroke="none" 
	d="
M410.316711,543.888672 
	C418.066345,543.948364 422.058411,546.306335 424.225006,551.817322 
	C426.179962,556.789978 424.961151,562.977173 421.096191,566.523865 
	C416.885529,570.387878 411.954315,571.027039 406.735016,568.959045 
	C401.508026,566.887878 398.594482,561.727478 399.006104,555.718506 
	C399.421967,549.647644 403.155396,545.604370 410.316711,543.888672 
z"/>
<path fill="#EE8D24" opacity="1.000000" stroke="none" 
	d="
M75.916458,543.569702 
	C75.888916,538.657532 75.888916,534.203491 75.888916,529.834106 
	C84.327156,527.888245 91.332497,529.449341 93.212585,533.717468 
	C94.747810,537.202637 94.389328,540.583130 91.518127,543.301575 
	C88.526779,546.133728 79.366600,546.473450 75.916458,543.569702 
z"/>
<path fill="#EE8C20" opacity="1.000000" stroke="none" 
	d="
M342.812744,546.689697 
	C352.623840,540.648438 363.197632,545.206909 364.033447,555.456787 
	C364.499969,561.177917 361.749847,566.526367 357.164917,568.814819 
	C352.372253,571.206970 346.017822,570.278015 342.329376,566.645935 
	C338.445953,562.821838 337.196350,556.593689 339.500641,551.455750 
	C340.230652,549.828003 341.506378,548.445068 342.812744,546.689697 
z"/>
<path fill="#EE8C20" opacity="1.000000" stroke="none" 
	d="
M525.176147,543.835205 
	C534.512268,544.292847 539.443176,549.273743 539.134216,557.478821 
	C538.842834,565.218872 533.200317,570.411865 525.477539,570.047668 
	C518.918213,569.738281 513.933655,564.662048 513.412537,557.760620 
	C512.885559,550.782288 517.366699,545.288818 525.176147,543.835205 
z"/>
<path fill="#EE8D24" opacity="1.000000" stroke="none" 
	d="
M606.221802,544.006104 
	C615.203918,540.543579 621.096802,542.712280 624.047852,550.639526 
	C616.585266,550.639526 609.259827,550.639526 600.610474,550.639526 
	C602.632263,548.164001 604.258667,546.172607 606.221802,544.006104 
z"/>
<path fill="#EE8C20" opacity="1.000000" stroke="none" 
	d="
M146.955933,564.713074 
	C141.396286,570.399841 136.054520,571.427612 130.695343,568.124146 
	C125.562416,564.960083 123.291016,558.322205 125.294380,552.340393 
	C127.168625,546.744141 132.579941,543.314148 138.525452,543.953979 
	C147.720245,544.943298 151.928970,554.896790 146.955933,564.713074 
z"/>
<path fill="#EB891D" opacity="1.000000" stroke="none" 
	d="
M156.851318,639.715576 
	C164.253967,641.208984 167.991745,645.284424 168.342163,651.815430 
	C168.674698,658.013489 165.361298,663.194458 159.882172,665.043762 
	C154.649857,666.809753 149.006805,664.906555 145.916000,660.211365 
	C140.235992,651.583008 145.950058,639.012207 156.851318,639.715576 
z"/>
</svg>